<?xml version="1.0" standalone="no"?>
<!DOCTYPE svg PUBLIC "-//W3C//DTD SVG 20010904//EN"
 "http://www.w3.org/TR/2001/REC-SVG-20010904/DTD/svg10.dtd">
<svg version="1.0" xmlns="http://www.w3.org/2000/svg"
 width="938.000000pt" height="938.000000pt" viewBox="0 0 938.000000 938.000000"
 preserveAspectRatio="xMidYMid meet">

<g transform="translate(0.000000,938.000000) scale(0.100000,-0.100000)"
fill="#000000" stroke="none">
<path d="M4465 9183 c-440 -27 -816 -97 -1195 -223 -547 -182 -1123 -512
-1535 -880 -335 -299 -562 -558 -789 -900 -238 -357 -389 -668 -526 -1080
-218 -653 -280 -1308 -190 -1998 223 -1710 1430 -3161 3070 -3691 953 -308
1976 -292 2914 46 830 298 1573 854 2102 1573 789 1071 1060 2440 742 3740
-155 634 -495 1308 -902 1785 -28 33 -62 73 -76 89 -222 266 -609 603 -925
809 -588 381 -1200 608 -1877 697 -267 35 -581 48 -813 33z m541 -73 c1262
-100 2374 -689 3158 -1673 515 -648 826 -1403 933 -2267 27 -222 25 -763 -5
-996 -94 -743 -341 -1395 -760 -2004 -592 -861 -1501 -1499 -2515 -1765 -860
-226 -1795 -186 -2617 112 -980 355 -1796 1030 -2325 1923 -322 544 -515 1123
-590 1770 -23 192 -30 580 -16 780 52 716 261 1378 622 1978 670 1110 1788
1875 3059 2091 112 19 345 47 445 54 121 8 493 6 611 -3z"/>
<path d="M4425 9033 c-900 -57 -1751 -387 -2450 -948 -675 -543 -1165 -1253
-1429 -2070 -276 -857 -274 -1810 5 -2665 331 -1013 1005 -1854 1930 -2406
896 -534 1975 -723 3019 -528 839 156 1634 575 2245 1181 285 282 503 564 707
913 480 820 674 1784 552 2740 -235 1852 -1667 3369 -3504 3714 -333 63 -753
90 -1075 69z m667 -289 c721 -74 1383 -324 1968 -743 472 -338 883 -794 1175
-1306 261 -457 422 -941 502 -1515 26 -184 26 -777 0 -975 -124 -951 -530
-1769 -1208 -2430 -310 -302 -593 -507 -974 -705 -425 -222 -878 -362 -1380
-427 -202 -26 -781 -26 -975 0 -828 113 -1558 435 -2156 953 -747 646 -1224
1497 -1380 2462 -46 285 -58 736 -29 1032 51 508 191 986 420 1435 158 310
337 579 534 805 738 844 1684 1328 2786 1423 127 11 579 6 717 -9z"/>
<path d="M4376 8581 c-3 -5 1 -78 9 -162 13 -130 13 -156 1 -167 -10 -10 -19
-11 -33 -4 -17 10 -21 30 -33 171 l-13 161 -26 0 c-51 0 -52 -3 -35 -180 17
-180 25 -201 83 -221 44 -15 103 2 125 36 19 29 20 50 4 233 l-12 142 -33 0
c-17 0 -34 -4 -37 -9z"/>
<path d="M4962 8570 c-37 -23 -52 -54 -52 -109 0 -48 14 -66 75 -99 44 -24 50
-31 53 -63 5 -64 -59 -81 -73 -19 -6 26 -11 30 -41 30 -32 0 -34 -2 -34 -34 0
-70 80 -121 153 -97 43 15 63 43 72 103 9 61 -9 93 -76 133 -47 28 -54 36 -52
60 4 54 52 59 68 7 8 -28 14 -32 42 -32 31 0 33 2 33 35 0 79 -98 129 -168 85z"/>
<path d="M3698 8473 c-13 -3 -18 -23 -24 -104 -3 -54 -10 -99 -14 -99 -4 0
-33 34 -65 76 -54 72 -59 76 -88 70 -17 -3 -32 -8 -34 -10 -4 -3 66 -260 98
-362 10 -31 11 -32 44 -21 19 6 35 13 35 17 0 4 -11 44 -25 90 -14 46 -24 85
-22 86 2 2 20 -19 40 -46 35 -47 59 -61 71 -42 2 4 8 35 11 67 4 33 8 61 10
63 1 1 13 -37 27 -85 25 -88 25 -88 57 -86 18 0 35 3 38 6 3 3 -19 90 -49 194
-57 197 -59 200 -110 186z"/>
<path d="M5607 8449 c-38 -34 -102 -268 -86 -316 30 -92 182 -90 205 3 8 30 8
30 -33 38 -26 6 -32 4 -38 -12 -8 -26 -29 -34 -50 -18 -16 11 -15 21 14 131
17 65 33 120 36 123 2 2 16 1 31 -2 23 -6 26 -11 21 -35 -5 -26 -3 -29 25 -35
47 -9 48 -9 48 38 0 64 -31 97 -96 103 -43 4 -54 2 -77 -18z"/>
<path d="M6240 8251 c-23 -45 -160 -344 -158 -347 2 -1 43 -20 91 -43 l88 -40
14 31 13 32 -51 23 c-28 14 -53 26 -55 28 -2 2 26 68 63 147 37 78 69 148 71
154 3 6 -3 14 -13 17 -10 2 -26 8 -35 12 -11 4 -20 0 -28 -14z"/>
<path d="M2997 8214 c-16 -9 -26 -21 -24 -28 3 -7 8 -39 12 -72 l6 -59 -50 53
-50 53 -36 -19 -36 -18 58 -55 c32 -30 72 -66 90 -80 17 -15 50 -63 73 -108
22 -45 44 -80 48 -78 4 1 19 9 34 16 l27 14 -39 77 c-34 68 -41 93 -52 196 -7
64 -17 119 -23 120 -5 2 -23 -4 -38 -12z"/>
<path d="M6724 7803 c-60 -86 -112 -162 -116 -168 -5 -8 22 -32 75 -67 l82
-55 19 24 c21 28 14 40 -40 74 -41 25 -42 35 -6 77 l27 33 37 -26 c46 -31 52
-31 72 -1 15 24 15 25 -28 52 -43 27 -44 29 -30 54 36 66 38 66 93 27 l50 -36
20 28 20 28 -72 49 c-40 27 -73 52 -75 56 -9 19 -26 -1 -128 -149z"/>
<path d="M2372 7838 c-21 -13 -29 -24 -24 -33 23 -39 226 -315 232 -315 10 0
90 55 127 87 l33 28 -20 24 -20 23 -51 -32 c-28 -19 -54 -29 -58 -24 -5 5 -49
66 -98 136 l-89 126 -32 -20z"/>
<path d="M1871 7396 l-24 -25 81 -78 c44 -43 110 -107 146 -142 l65 -64 71 69
70 68 -25 25 -25 25 -38 -37 c-21 -20 -44 -37 -51 -37 -8 0 -63 48 -123 108
-59 59 -112 108 -116 110 -5 1 -19 -9 -31 -22z"/>
<path d="M7662 7113 c-27 -21 -98 -75 -156 -121 l-107 -83 22 -30 c14 -20 25
-27 32 -21 7 5 38 28 69 50 l57 42 34 -42 34 -41 23 21 24 22 -31 43 c-25 34
-29 45 -18 53 7 5 26 19 43 31 l29 22 32 -44 c36 -50 49 -54 75 -26 17 18 15
22 -40 90 -31 39 -60 71 -64 71 -4 0 -30 -17 -58 -37z"/>
<path d="M1521 6958 c-62 -33 -87 -123 -46 -168 23 -25 156 -120 204 -144 60
-32 124 -3 151 68 18 48 3 83 -50 124 -161 123 -210 146 -259 120z m135 -123
c92 -62 107 -77 102 -102 -6 -34 -40 -25 -134 37 -71 48 -94 68 -94 85 0 51
27 47 126 -20z"/>
<path d="M2893 6935 c-44 -19 -73 -69 -73 -125 -1 -80 -20 -183 -45 -238 -13
-29 -50 -92 -81 -140 -76 -116 -210 -381 -234 -462 -23 -78 -50 -432 -65 -845
-11 -288 21 -755 72 -1050 45 -269 153 -596 235 -717 94 -138 104 -142 252
-128 225 20 293 41 557 168 112 55 254 118 314 142 368 142 520 211 728 329
179 102 168 87 118 159 -23 34 -50 66 -61 72 -36 19 -77 11 -122 -25 -197
-159 -292 -206 -1007 -501 -290 -120 -390 -152 -505 -160 -70 -6 -84 -4 -103
12 -29 25 -125 248 -167 388 -78 254 -120 538 -136 894 -11 258 -11 680 -1
982 8 230 10 238 102 395 65 111 266 472 323 580 26 50 63 105 82 123 56 54
78 48 297 -75 201 -114 287 -179 287 -217 0 -13 -14 -43 -30 -68 -21 -32 -35
-70 -45 -126 -19 -108 -43 -151 -115 -207 -92 -71 -116 -71 -236 0 -74 45
-101 56 -113 48 -9 -5 -26 -48 -39 -94 -13 -46 -28 -93 -34 -105 -11 -23 -67
-54 -98 -54 -34 0 -39 -29 -29 -141 28 -300 100 -614 203 -879 110 -281 109
-279 110 -380 1 -52 -2 -135 -7 -185 l-7 -90 53 130 c119 289 208 423 367 556
152 127 321 191 549 208 62 4 119 14 136 23 249 129 286 138 535 138 266 0
332 -20 438 -129 l62 -65 43 22 c23 12 65 34 92 50 78 45 208 112 211 109 7
-6 -50 -250 -75 -324 -54 -158 -165 -309 -270 -371 -111 -65 -223 -76 -483
-47 -232 26 -369 -2 -592 -118 l-100 -52 40 -3 c168 -11 241 -39 369 -141 100
-79 216 -141 315 -167 55 -15 119 -17 417 -18 274 -1 355 -4 365 -14 10 -10
14 -169 18 -777 5 -749 5 -764 25 -779 17 -13 101 -15 627 -16 349 0 609 4
612 9 3 5 7 1022 8 2260 l3 2251 -612 0 c-336 0 -619 -3 -628 -6 -44 -17 -44
-18 -38 -795 5 -586 4 -739 -7 -758 l-12 -24 -182 6 c-99 4 -237 14 -306 22
-343 43 -580 26 -773 -52 -34 -14 -117 -47 -184 -73 l-123 -48 0 840 0 839
-25 24 -24 25 -573 0 c-469 -1 -579 -3 -605 -15z m3533 -3495 l58 -180 195 0
c168 0 193 -2 181 -14 -8 -8 -69 -53 -134 -101 -66 -47 -130 -94 -142 -104
l-23 -18 59 -179 c33 -97 58 -179 56 -181 -2 -2 -62 38 -132 90 -202 147 -166
139 -275 61 -52 -38 -121 -87 -153 -111 -32 -24 -60 -42 -62 -40 -2 1 21 78
51 170 30 92 55 174 55 182 0 13 -169 146 -264 207 -20 13 -36 26 -36 31 0 4
87 7 193 7 l192 0 54 173 c57 180 60 187 66 187 2 0 30 -81 61 -180z"/>
<path d="M7915 6519 c-88 -50 -164 -94 -168 -98 -5 -5 -1 -23 8 -40 l16 -31
42 24 c23 13 104 58 180 101 l137 77 -17 29 c-10 16 -22 29 -28 28 -5 0 -82
-41 -170 -90z"/>
<path d="M1167 6392 c-3 -10 -8 -25 -12 -35 -6 -14 6 -23 69 -53 64 -29 75
-38 68 -52 -5 -9 -11 -23 -13 -29 -3 -9 -20 -5 -59 13 -101 47 -98 47 -116 13
-9 -17 -12 -35 -7 -39 12 -10 347 -160 359 -160 8 0 38 62 31 65 -1 0 -35 16
-74 35 -72 33 -84 48 -64 79 8 13 22 9 87 -22 72 -34 78 -35 90 -19 31 45 26
50 -136 123 -228 104 -217 100 -223 81z"/>
<path d="M8277 6133 c-13 -3 -17 -11 -13 -24 3 -10 8 -27 12 -37 4 -14 -20
-26 -154 -75 l-160 -59 11 -34 c6 -19 14 -34 17 -34 4 0 74 25 155 55 82 30
152 55 157 55 5 0 14 -14 20 -30 8 -25 14 -29 32 -24 39 12 39 21 5 116 -34
92 -43 102 -82 91z"/>
<path d="M8310 5470 l-195 -36 3 -34 c2 -19 5 -36 7 -38 2 -2 40 4 84 13 45 9
88 15 96 13 8 -2 -25 -27 -74 -57 -87 -53 -90 -55 -84 -85 3 -17 7 -33 9 -35
2 -3 264 42 375 65 22 4 25 9 21 35 -2 17 -10 33 -17 36 -8 2 -51 -2 -96 -11
-46 -9 -84 -14 -86 -12 -2 1 35 27 82 56 79 49 85 55 85 86 0 18 -3 35 -7 37
-5 2 -96 -13 -203 -33z"/>
<path d="M8190 4700 l0 -100 35 0 35 0 0 60 c0 33 3 60 8 61 4 0 26 1 50 3
l42 2 0 -53 0 -53 35 0 35 0 0 55 0 55 50 0 49 0 3 -62 c3 -63 3 -63 36 -66
l32 -3 0 100 0 101 -205 0 -205 0 0 -100z"/>
<path d="M806 4739 c-45 -53 -30 -130 29 -154 23 -10 70 -15 142 -15 172 0
213 21 213 108 0 32 -6 49 -25 67 -23 24 -28 25 -179 25 l-154 0 -26 -31z
m312 -66 c3 -23 2 -23 -127 -23 -130 0 -149 5 -137 36 5 12 28 14 133 12 124
-3 128 -4 131 -25z"/>
<path d="M8193 4190 c-40 -24 -53 -48 -53 -100 0 -52 13 -76 51 -95 32 -17
117 -23 137 -11 7 4 28 32 47 62 37 58 40 59 79 44 44 -16 28 -70 -21 -70 -16
0 -23 -6 -23 -19 0 -11 -3 -26 -6 -34 -8 -21 49 -27 87 -8 50 24 73 99 48 155
-24 52 -124 73 -171 37 -13 -11 -33 -36 -43 -56 -23 -41 -48 -51 -89 -36 -22
9 -27 16 -24 39 2 21 9 28 30 30 20 2 30 10 34 28 14 55 -24 71 -83 34z"/>
<path d="M1172 4171 c-10 -6 -12 -21 -7 -55 4 -25 5 -46 1 -46 -3 0 -42 14
-88 30 -108 40 -166 40 -210 2 -26 -24 -31 -36 -30 -67 2 -46 24 -83 58 -95
57 -22 89 -6 79 39 -6 26 -11 31 -36 31 -22 0 -29 5 -29 20 0 37 43 35 153 -5
90 -34 197 -54 197 -37 0 3 -7 48 -17 99 -14 82 -19 93 -37 93 -12 0 -27 -4
-34 -9z"/>
<path d="M8044 3585 c-55 -28 -82 -112 -54 -166 15 -27 83 -59 128 -59 32 0
45 7 82 45 46 46 78 56 100 30 21 -25 8 -50 -29 -55 -27 -4 -37 -11 -44 -34
-11 -34 2 -46 52 -46 24 0 42 9 67 34 29 29 34 41 34 79 0 56 -27 92 -80 108
-54 16 -81 6 -133 -48 l-46 -47 -35 17 c-36 17 -45 38 -27 66 5 8 19 12 35 9
22 -4 27 0 37 29 6 19 9 36 7 38 -14 12 -68 13 -94 0z"/>
<path d="M1165 3535 c-133 -49 -165 -74 -165 -129 0 -39 31 -83 68 -97 21 -8
51 -1 160 37 74 26 143 56 153 67 30 33 26 98 -10 136 -38 41 -59 39 -206 -14z
m165 -54 c0 -15 -23 -27 -117 -60 -107 -38 -143 -44 -143 -24 1 19 20 31 95
57 44 16 87 32 95 37 8 5 27 9 43 9 20 0 27 -5 27 -19z"/>
<path d="M3917 3465 c-98 -41 -253 -110 -345 -154 -279 -134 -468 -186 -654
-179 l-98 3 0 -346 c0 -307 2 -348 16 -353 9 -3 294 -6 634 -6 549 0 620 2
634 16 14 14 16 76 16 532 0 485 -3 563 -19 561 -3 0 -86 -34 -184 -74z"/>
<path d="M1547 3036 c-16 -13 -16 -16 9 -60 l26 -46 -107 0 c-152 0 -205 -30
-205 -115 0 -82 103 -124 168 -70 2 2 -4 17 -13 35 -12 23 -21 30 -33 25 -32
-13 -47 -10 -47 10 0 35 41 45 176 44 96 -2 131 1 147 13 21 14 20 15 -25 96
-47 83 -62 94 -96 68z"/>
<path d="M7504 2591 c-43 -26 -64 -59 -64 -99 0 -45 13 -67 62 -102 48 -35 71
-37 118 -10 77 44 78 45 100 25 39 -35 13 -88 -31 -65 -18 10 -25 8 -45 -14
-13 -14 -24 -27 -24 -30 0 -12 61 -36 91 -36 37 0 94 51 105 94 14 58 -53 136
-116 136 -14 0 -48 -12 -76 -27 -50 -26 -52 -26 -78 -9 -34 22 -42 42 -25 62
9 11 22 14 45 10 26 -5 34 -2 48 18 21 33 21 33 -14 51 -38 20 -58 19 -96 -4z"/>
<path d="M2192 2134 c-32 -22 -164 -161 -179 -187 -28 -49 -10 -99 57 -161
l43 -39 51 54 c28 30 91 96 140 147 l90 92 -40 41 c-66 68 -117 85 -162 53z
m83 -69 c18 -15 18 -17 -21 -58 -22 -23 -64 -68 -93 -99 -30 -32 -59 -54 -66
-52 -18 7 -27 33 -18 49 17 29 156 175 167 175 6 0 20 -7 31 -15z"/>
<path d="M7068 2123 l-27 -28 116 -123 116 -123 -27 -28 -26 -27 25 -24 c16
-15 29 -20 33 -14 4 5 39 40 78 76 l72 67 -24 22 -24 22 -25 -23 -25 -23 -78
84 c-43 46 -96 103 -118 127 l-39 43 -27 -28z"/>
<path d="M6633 1773 c-12 -2 -36 -17 -53 -33 -53 -49 -45 -84 57 -241 48 -74
88 -136 90 -139 8 -9 58 27 57 41 -1 8 -36 68 -79 134 -86 130 -95 159 -55
162 21 2 32 -8 61 -55 20 -31 59 -92 86 -134 l49 -77 33 20 32 20 -23 37 c-54
89 -156 238 -169 248 -18 14 -58 22 -86 17z"/>
<path d="M2661 1630 l-91 -141 -32 17 c-30 15 -32 15 -45 -2 -7 -10 -12 -25
-11 -32 2 -7 42 -37 90 -67 l86 -54 18 26 c16 26 16 27 -10 45 -14 11 -26 24
-26 29 0 5 36 64 80 130 45 66 84 127 87 136 5 14 -29 52 -48 53 -4 0 -48 -63
-98 -140z"/>
<path d="M6085 1479 c-62 -25 -105 -69 -105 -109 0 -37 84 -237 113 -267 27
-30 81 -30 150 -1 29 12 54 23 56 24 5 4 -151 374 -158 373 -3 0 -28 -9 -56
-20z m70 -196 c29 -67 50 -124 47 -127 -3 -3 -18 -6 -33 -6 -25 0 -31 8 -73
109 -25 60 -46 113 -46 119 0 13 31 33 44 29 5 -2 33 -58 61 -124z"/>
<path d="M3208 1472 c-31 -18 -68 -88 -68 -127 0 -15 17 -44 45 -75 25 -28 45
-52 45 -55 0 -2 -5 -16 -10 -30 -8 -21 -16 -26 -38 -23 -24 3 -27 7 -27 37 0
29 -5 36 -30 47 -27 11 -31 10 -42 -9 -18 -33 -16 -60 10 -97 24 -37 79 -61
119 -53 35 7 78 53 87 96 10 43 -5 81 -48 121 -35 34 -39 64 -12 97 18 22 19
22 44 6 22 -14 25 -21 17 -41 -8 -22 -6 -26 27 -37 41 -13 53 -3 53 47 0 39
-33 82 -76 100 -43 18 -63 17 -96 -4z"/>
<path d="M3770 1299 c0 -8 -3 -24 -6 -36 -5 -19 0 -22 51 -34 l57 -13 -7 -45
c-4 -25 -9 -49 -11 -53 -2 -3 -26 0 -53 7 -28 7 -52 10 -55 7 -3 -3 -6 -18 -6
-33 0 -24 5 -28 49 -39 l49 -11 -11 -42 c-5 -23 -13 -45 -16 -49 -3 -4 -32 -1
-64 6 -41 10 -57 10 -57 2 0 -6 -3 -21 -6 -32 -5 -20 1 -24 86 -44 51 -11 96
-18 100 -13 8 9 90 351 90 375 0 11 -24 20 -82 33 -46 10 -89 20 -95 22 -7 3
-13 -1 -13 -8z"/>
<path d="M5491 1281 c-11 -7 -5 -43 35 -204 27 -112 52 -194 58 -192 6 2 23 6
37 9 l26 6 -46 192 c-45 183 -48 193 -71 196 -14 1 -31 -2 -39 -7z"/>
<path d="M4913 1190 c-12 -5 -30 -21 -39 -35 -15 -23 -16 -40 -7 -160 11 -146
23 -178 71 -196 41 -16 101 -4 131 25 29 30 30 44 17 220 -7 91 -11 102 -36
128 -23 22 -37 28 -72 27 -24 0 -53 -4 -65 -9z m91 -87 c3 -16 8 -72 12 -127
5 -78 4 -100 -7 -107 -25 -16 -48 -10 -54 14 -9 35 -22 220 -17 235 2 6 17 12
32 12 23 0 29 -5 34 -27z"/>
</g>
</svg>
